name Walk4.mot
datacolumns 19
datarows 25
range 3.98000000 4.10000000
endheader

                time	   L_ground_force_vx	   L_ground_force_vy	   L_ground_force_vz	   L_ground_force_px	   L_ground_force_py	   L_ground_force_pz	   R_ground_force_vx	   R_ground_force_vy	   R_ground_force_vz	   R_ground_force_px	   R_ground_force_py	   R_ground_force_pz	   L_ground_torque_x	   L_ground_torque_y	   L_ground_torque_z	   R_ground_torque_x	   R_ground_torque_y	   R_ground_torque_z	
          3.98000000	          0.00000000	          0.00000000	          0.00000000	          0.00000000	          0.00000000	          0.00000000	         13.91355922	         76.02246259	         -0.41668155	          0.21157397	          0.00000000	          0.09676197	          0.00000000	         -0.00000000	          0.00000000	          0.00000000	         -3.75089247	          0.00000000	
          3.98500000	          0.00000000	          0.00000000	          0.00000000	          0.00000000	          0.00000000	          0.00000000	          8.87790487	         52.50027306	          0.08070336	          0.18545234	          0.00000000	          0.08347899	          0.00000000	          0.00000000	          0.00000000	          0.00000000	         -2.74559278	          0.00000000	
          3.99000000	          0.00000000	          0.00000000	          0.00000000	          0.00000000	          0.00000000	          0.00000000	          4.92311607	         33.39161347	          0.37970735	          0.15574513	          0.00000000	          0.06902307	          0.00000000	          0.00000000	          0.00000000	          0.00000000	         -1.88743813	          0.00000000	
          3.99500000	          0.00000000	          0.00000000	          0.00000000	         -0.00000000	          0.00000000	         -0.00000000	          1.99432734	         18.51098884	          0.53965901	          0.12462166	          0.00000000	          0.05438660	          0.00000000	          0.00000000	          0.00000000	          0.00000000	         -1.18825793	          0.00000000	
          4.00000000	          0.00000000	          0.00000000	          0.00000000	         -0.00000000	          0.00000000	         -0.00000000	         -0.04159597	          7.50441592	          0.59954183	          0.09480845	          0.00000000	          0.04069984	          0.00000000	          0.00000000	          0.00000000	          0.00000000	         -0.64591272	          0.00000000	
          4.00500000	          0.00000000	          0.00000000	         -0.00000000	         -0.00000000	          0.00000000	         -0.00000000	         -1.34390440	         -0.14739463	          0.59052702	          0.06819162	          0.00000000	          0.02870392	          0.00000000	          0.00000000	          0.00000000	          0.00000000	         -0.24703335	          0.00000000	
          4.01000000	          0.00000000	          0.00000000	         -0.00000000	         -0.00000000	          0.00000000	         -0.00000000	         -2.07276299	         -5.04269538	          0.53804244	          0.04572962	          0.00000000	          0.01874104	          0.00000000	          0.00000000	          0.00000000	          0.00000000	          0.02829761	          0.00000000	
          4.01500000	          0.00000000	          0.00000000	         -0.00000000	         -0.00000000	          0.00000000	         -0.00000000	         -2.37623539	         -7.78314068	          0.46183245	          0.02770852	          0.00000000	          0.01086984	          0.00000000	          0.00000000	          0.00000000	          0.00000000	          0.20262402	          0.00000000	
          4.02000000	          0.00000000	          0.00000000	         -0.00000000	         -0.00000000	          0.00000000	         -0.00000000	         -2.38291487	         -8.92498285	          0.37643510	          0.01396053	          0.00000000	          0.00496252	          0.00000000	          0.00000000	          0.00000000	          0.00000000	          0.29839106	          0.00000000	
          4.02500000	          0.00000000	          0.00000000	         -0.00000000	         -0.00000000	          0.00000000	         -0.00000000	         -2.19873854	         -8.95136588	          0.29189996	          0.00404010	          0.00000000	          0.00078180	          0.00000000	          0.00000000	          0.00000000	          0.00000000	          0.33620549	          0.00000000	
          4.03000000	         -0.00000000	          0.00000000	         -0.00000000	         -0.00000000	          0.00000000	         -0.00000000	         -1.90673620	         -8.26034000	          0.21460346	         -0.00264120	          0.00000000	         -0.00196105	          0.00000000	          0.00000000	          0.00000000	          0.00000000	          0.33386535	          0.00000000	
          4.03500000	         -0.00000000	          0.00000000	         -0.00000000	         -0.00000000	          0.00000000	         -0.00000000	         -1.56868097	         -7.16390548	          0.14806217	         -0.00671691	          0.00000000	         -0.00356489	          0.00000000	          0.00000000	          0.00000000	          0.00000000	          0.30595996	          0.00000000	
          4.04000000	         -0.00000000	         -0.00000000	         -0.00000000	         -0.00000000	          0.00000000	         -0.00000000	         -1.22782900	         -5.89420495	          0.09368061	         -0.00879935	          0.00000000	         -0.00431146	          0.00000000	          0.00000000	          0.00000000	          0.00000000	          0.26386704	          0.00000000	
          4.04500000	         -0.00000000	         -0.00000000	         -0.00000000	         -0.00000000	          0.00000000	         -0.00000000	         -0.91214081	         -4.61381026	          0.05139776	         -0.00943886	          0.00000000	         -0.00444924	          0.00000000	          0.00000000	          0.00000000	          0.00000000	          0.21600497	          0.00000000	
          4.05000000	         -0.00000000	         -0.00000000	         -0.00000000	         -0.00000000	          0.00000000	         -0.00000000	         -0.63755678	         -3.42782134	          0.02021765	         -0.00910246	          0.00000000	         -0.00418571	          0.00000000	          0.00000000	          0.00000000	          0.00000000	          0.16822857	          0.00000000	
          4.05500000	         -0.00000000	         -0.00000000	         -0.00000000	         -0.00000000	          0.00000000	         -0.00000000	         -0.41104833	         -2.39617040	         -0.00137653	         -0.00816684	          0.00000000	         -0.00368568	          0.00000000	         -0.00000000	          0.00000000	          0.00000000	          0.12428565	          0.00000000	
          4.06000000	         -0.00000000	         -0.00000000	         -0.00000000	         -0.00000000	          0.00000000	         -0.00000000	         -0.23328390	         -1.54508453	         -0.01511559	         -0.00692095	          0.00000000	         -0.00307352	          0.00000000	         -0.00000000	          0.00000000	          0.00000000	          0.08627641	          0.00000000	
          4.06500000	         -0.00000000	         -0.00000000	         -0.00000000	          0.00000000	          0.00000000	          0.00000000	         -0.10083707	         -0.87710215	         -0.02273072	         -0.00557462	          0.00000000	         -0.00243788	          0.00000000	         -0.00000000	          0.00000000	          0.00000000	          0.05507840	          0.00000000	
          4.07000000	         -0.00000000	         -0.00000000	         -0.00000000	          0.00000000	          0.00000000	          0.00000000	         -0.00792650	         -0.37936981	         -0.02581643	         -0.00427036	          0.00000000	         -0.00183745	          0.00000000	         -0.00000000	          0.00000000	          0.00000000	          0.03071569	          0.00000000	
          4.07500000	         -0.00000000	         -0.00000000	          0.00000000	          0.00000000	          0.00000000	          0.00000000	          0.05228215	         -0.03018014	         -0.02575347	         -0.00309623	          0.00000000	         -0.00130709	          0.00000000	         -0.00000000	          0.00000000	          0.00000000	          0.01266311	          0.00000000	
          4.08000000	         -0.00000000	         -0.00000000	          0.00000000	          0.00000000	          0.00000000	          0.00000000	          0.08675790	          0.19613532	         -0.02367631	         -0.00209841	          0.00000000	         -0.00086360	          0.00000000	         -0.00000000	          0.00000000	          0.00000000	          0.00008484	          0.00000000	
          4.08500000	         -0.00000000	         -0.00000000	          0.00000000	          0.00000000	          0.00000000	          0.00000000	          0.10200503	          0.32575510	         -0.02047175	         -0.00129257	          0.00000000	         -0.00051090	          0.00000000	         -0.00000000	          0.00000000	          0.00000000	         -0.00798806	          0.00000000	
          4.09000000	         -0.00000000	         -0.00000000	          0.00000000	          0.00000000	          0.00000000	          0.00000000	          0.10371535	          0.38311447	         -0.01679767	         -0.00067357	          0.00000000	         -0.00024431	          0.00000000	         -0.00000000	          0.00000000	          0.00000000	         -0.01253331	          0.00000000	
          4.09500000	         -0.00000000	         -0.00000000	          0.00000000	          0.00000000	          0.00000000	          0.00000000	          0.09660952	          0.38959820	         -0.01311305	         -0.00022335	          0.00000000	         -0.00005403	          0.00000000	         -0.00000000	          0.00000000	          0.00000000	         -0.01445685	          0.00000000	
          4.10000000	          0.00000000	         -0.00000000	          0.00000000	          0.00000000	          0.00000000	          0.00000000	          0.08441204	          0.36294358	         -0.00971310	          0.00008304	          0.00000000	          0.00007226	          0.00000000	         -0.00000000	          0.00000000	          0.00000000	         -0.01454702	          0.00000000	
